<?xml version="1.0" standalone="no"?>
<!DOCTYPE svg PUBLIC "-//W3C//DTD SVG 20010904//EN"
 "http://www.w3.org/TR/2001/REC-SVG-20010904/DTD/svg10.dtd">
<svg version="1.0" xmlns="http://www.w3.org/2000/svg"
 width="190.000000pt" height="199.000000pt" viewBox="0 0 190.000000 199.000000"
 preserveAspectRatio="xMidYMid meet">

<g transform="translate(0.000000,199.000000) scale(0.100000,-0.100000)"
fill="#000000" stroke="none">
<path d="M261 1961 c-34 -95 -107 -294 -122 -336 -9 -27 -32 -88 -49 -135 -39
-105 -80 -223 -80 -231 0 -3 39 -19 88 -34 48 -15 89 -31 92 -35 3 -3 42 -19
88 -35 l82 -28 0 -114 c0 -107 -15 -189 -51 -268 -5 -11 -11 -36 -13 -55 -3
-19 -18 -80 -35 -135 -36 -122 -101 -359 -101 -369 0 -4 4 -4 10 -1 11 7 121
47 275 102 55 19 135 48 177 64 43 16 85 29 95 29 16 0 69 -33 327 -202 32
-21 63 -38 70 -38 6 0 166 63 356 139 l345 139 3 48 c2 27 11 267 21 534 l18
485 -41 36 c-23 20 -151 125 -286 233 l-245 196 -34 -37 c-18 -21 -65 -76
-104 -123 -39 -47 -77 -90 -83 -97 -9 -9 -35 16 -109 103 -54 63 -99 114 -99
114 -1 0 -28 5 -61 10 -33 6 -139 19 -235 30 -96 11 -201 24 -232 29 -56 7
-58 7 -67 -18z m917 -660 c2 -180 2 -184 -23 -226 -19 -33 -36 -48 -70 -60
-64 -25 -143 -17 -189 19 -20 15 -36 30 -36 34 0 4 13 23 28 41 l28 33 34 -21
c46 -27 85 -27 104 1 13 18 16 54 16 189 0 185 -5 174 69 174 l36 0 3 -184z
m-398 134 c0 -43 -1 -45 -30 -45 l-30 0 0 -145 0 -145 31 0 c30 0 30 -1 27
-47 l-3 -47 -93 -4 c-51 -2 -104 -1 -118 2 -23 6 -25 11 -22 49 3 39 5 42 36
45 l32 3 0 145 0 144 -35 0 c-35 0 -35 0 -35 45 l0 45 120 0 120 0 0 -45z
m118 -772 l-3 -38 -210 0 -210 0 -3 38 -3 37 216 0 216 0 -3 -37z"/>
</g>
</svg>
